<?xml version="1.0" standalone="no"?>
<!DOCTYPE svg PUBLIC "-//W3C//DTD SVG 20010904//EN"
 "http://www.w3.org/TR/2001/REC-SVG-20010904/DTD/svg10.dtd">
<svg version="1.0" xmlns="http://www.w3.org/2000/svg"
 width="32.000000pt" height="32.000000pt" viewBox="0 0 32.000000 32.000000"
 preserveAspectRatio="xMidYMid meet">

<g transform="translate(0.000000,32.000000) scale(0.100000,-0.100000)"
fill="#000000" stroke="none">
<path d="M30 265 c0 -101 38 -154 116 -163 93 -10 144 48 144 163 0 54 0 55
-30 55 l-30 0 0 -63 c0 -79 -17 -107 -66 -107 -55 0 -74 27 -74 105 l0 65 -30
0 c-30 0 -30 -1 -30 -55z"/>
<path d="M20 25 l0 -25 140 0 140 0 0 25 0 25 -140 0 -140 0 0 -25z"/>
</g>
</svg>
